<svg width="178" height="153" viewBox="0 0 178 153" fill="none" xmlns="http://www.w3.org/2000/svg">
<circle cx="60" cy="93" r="59.5" fill="#FF9900" stroke="#FF9900"/>
<g clip-path="url(#clip0)">
<path fill-rule="evenodd" clip-rule="evenodd" d="M114 47.0001C105.163 47.0001 98 54.1636 98 63.0001C98 71.8366 105.163 79.0001 114 79.0001C122.837 79.0001 130 71.8366 130 63.0001C130 54.1636 122.837 47.0001 114 47.0001ZM96 63.0001C96 53.059 104.059 45.0001 114 45.0001C123.941 45.0001 132 53.059 132 63.0001C132 72.9412 123.941 81.0001 114 81.0001C104.059 81.0001 96 72.9412 96 63.0001Z" fill="black"/>
<path fill-rule="evenodd" clip-rule="evenodd" d="M114.5 2.00538C111.752 2.00538 109.117 3.09693 107.174 5.03991C105.231 6.98288 104.139 9.61812 104.139 12.3659V13.3318L104.139 13.3358C104.131 15.3596 103.532 17.3368 102.414 19.0242C101.297 20.7115 99.7104 22.0353 97.8502 22.8325C97.7254 22.886 97.591 22.9136 97.4553 22.9136H97.2066C95.3621 23.6821 93.3333 23.9023 91.3642 23.5452C89.324 23.1753 87.4414 22.2027 85.9592 20.7528L85.9512 20.745L85.6104 20.4041C84.6482 19.4408 83.5051 18.6762 82.2474 18.1549C80.9896 17.6335 79.6415 17.3651 78.2799 17.3651C76.9184 17.3651 75.5702 17.6335 74.3125 18.1549C73.0547 18.6762 71.9121 19.4404 70.9499 20.4037L70.9491 20.4045C69.9858 21.3667 69.2216 22.5094 68.7002 23.7671C68.1788 25.0248 67.9105 26.373 67.9105 27.7346C67.9105 29.0961 68.1788 30.4443 68.7002 31.702C69.2216 32.9598 69.9858 34.1024 70.9491 35.0646L71.2982 35.4137C72.7481 36.896 73.7207 38.7786 74.0906 40.8188C74.4586 42.8486 74.2133 44.9418 73.3863 46.8312C72.6655 48.7729 71.3799 50.4547 69.6948 51.6599C68.0012 52.8713 65.9823 53.5451 63.9006 53.5938L63.8771 53.5941H63.3658C60.618 53.5941 57.9828 54.6856 56.0398 56.6286C54.0968 58.5716 53.0053 61.2068 53.0053 63.9546C53.0053 66.7024 54.0968 69.3376 56.0398 71.2806C57.9828 73.2235 60.618 74.3151 63.3658 74.3151H64.3357C66.3594 74.3232 68.3367 74.9228 70.024 76.0403C71.7099 77.1568 73.0328 78.7414 73.8303 80.5995C74.6657 82.4951 74.9147 84.5974 74.5451 86.6358C74.1752 88.676 73.2026 90.5586 71.7527 92.0409L71.7449 92.0488L71.404 92.3896C70.4407 93.3519 69.6761 94.4949 69.1547 95.7526C68.6334 97.0104 68.365 98.3586 68.365 99.7201C68.365 101.082 68.6334 102.43 69.1547 103.688C69.6761 104.945 70.4403 106.088 71.4036 107.05L71.4044 107.051C72.3666 108.014 73.5092 108.778 74.767 109.3C76.0247 109.821 77.3729 110.09 78.7345 110.09C80.096 110.09 81.4442 109.821 82.7019 109.3C83.9597 108.778 85.1023 108.014 86.0645 107.051L86.4136 106.702C87.8959 105.252 89.7785 104.279 91.8187 103.909C93.8485 103.541 95.9417 103.787 97.8311 104.614C99.7728 105.335 101.455 106.62 102.66 108.305C103.871 109.999 104.545 112.018 104.594 114.099L104.594 114.123V114.634C104.594 117.382 105.686 120.017 107.629 121.96C109.571 123.903 112.207 124.995 114.955 124.995C117.702 124.995 120.338 123.903 122.281 121.96C124.223 120.017 125.315 117.382 125.315 114.634V113.668L125.315 113.664C125.323 111.641 125.923 109.663 127.04 107.976C128.157 106.29 129.741 104.967 131.599 104.17C133.495 103.334 135.597 103.085 137.636 103.455C139.676 103.825 141.559 104.797 143.041 106.247L143.049 106.255L143.39 106.596C144.352 107.559 145.495 108.324 146.753 108.845C148.01 109.367 149.359 109.635 150.72 109.635C152.082 109.635 153.43 109.367 154.688 108.845C155.945 108.324 157.088 107.56 158.05 106.596L158.051 106.596C159.014 105.633 159.778 104.491 160.3 103.233C160.821 101.975 161.09 100.627 161.09 99.2656C161.09 97.904 160.821 96.5559 160.3 95.2981C159.778 94.0404 159.014 92.8977 158.051 91.9355L157.702 91.5864C156.252 90.1042 155.279 88.2215 154.909 86.1813C154.54 84.1427 154.789 82.0402 155.624 80.1444C156.422 78.2866 157.745 76.7021 159.43 75.5858C161.118 74.4683 163.095 73.8687 165.119 73.8606L165.123 73.8606L165.634 73.8606C168.382 73.8606 171.017 72.769 172.96 70.826C174.903 68.8831 175.995 66.2478 175.995 63.5001C175.995 60.7523 174.903 58.1171 172.96 56.1741C171.017 54.2311 168.382 53.1395 165.634 53.1395H164.668L164.664 53.1395C162.641 53.1315 160.663 52.5318 158.976 51.4144C157.289 50.2969 155.965 48.7105 155.168 46.8503C155.114 46.7255 155.087 46.5911 155.087 46.4553V46.2066C154.318 44.3622 154.098 42.3334 154.455 40.3643C154.825 38.3241 155.797 36.4415 157.247 34.9592L157.255 34.9513L157.596 34.6105C158.559 33.6483 159.324 32.5052 159.845 31.2475C160.367 29.9897 160.635 28.6416 160.635 27.28C160.635 25.9185 160.367 24.5703 159.845 23.3126C159.324 22.0548 158.56 20.9122 157.596 19.95L157.596 19.9492C156.633 18.9859 155.491 18.2217 154.233 17.7003C152.975 17.1789 151.627 16.9106 150.266 16.9106C148.904 16.9106 147.556 17.1789 146.298 17.7003C145.04 18.2217 143.898 18.9859 142.935 19.9492L142.586 20.2983C141.104 21.7482 139.221 22.7208 137.181 23.0907C135.143 23.4603 133.041 23.2113 131.145 22.3759C129.287 21.5784 127.702 20.2555 126.586 18.5696C125.468 16.8823 124.869 14.905 124.861 12.8812L124.861 12.8772V12.3659C124.861 9.61812 123.769 6.98288 121.826 5.03991C119.883 3.09693 117.248 2.00538 114.5 2.00538ZM105.756 3.62197C108.075 1.30294 111.22 0.00012207 114.5 0.00012207C117.78 0.00012207 120.925 1.30294 123.244 3.62197C125.563 5.94101 126.866 9.08629 126.866 12.3659L126.866 12.8732C126.866 12.8739 126.866 12.8745 126.866 12.8751C126.873 14.5072 127.356 16.1017 128.258 17.4624C129.159 18.8237 130.439 19.8917 131.94 20.5349L131.95 20.5391C133.48 21.2145 135.178 21.416 136.824 21.1176C138.468 20.8195 139.985 20.0361 141.18 18.8684C141.182 18.8672 141.183 18.866 141.184 18.8648L141.517 18.532C141.517 18.5319 141.517 18.5322 141.517 18.532C142.665 17.3825 144.029 16.4701 145.53 15.8479C147.031 15.2256 148.64 14.9053 150.266 14.9053C151.891 14.9053 153.5 15.2256 155.001 15.8479C156.502 16.4701 157.865 17.3819 159.014 18.5312C160.163 19.6797 161.075 21.0435 161.698 22.5447C162.32 24.0459 162.64 25.655 162.64 27.28C162.64 28.9051 162.32 30.5142 161.698 32.0154C161.075 33.5166 160.163 34.8804 159.014 36.0288L158.681 36.3615C158.68 36.3628 158.678 36.3641 158.677 36.3654C157.509 37.5606 156.726 39.0779 156.428 40.722C156.13 42.368 156.331 44.0656 157.006 45.596C157.063 45.7235 157.092 45.8614 157.092 46.0008V46.2435C157.742 47.6652 158.778 48.8779 160.083 49.7425C161.444 50.6436 163.038 51.1274 164.67 51.1343H165.634C168.914 51.1343 172.059 52.4371 174.378 54.7561C176.697 57.0752 178 60.2205 178 63.5001C178 66.7797 176.697 69.9249 174.378 72.244C172.059 74.563 168.914 75.8658 165.634 75.8658L165.127 75.8658C165.126 75.8658 165.126 75.8658 165.125 75.8658C163.493 75.8727 161.898 76.3565 160.538 77.2576C159.176 78.1592 158.108 79.439 157.465 80.9398L157.461 80.9496C156.786 82.48 156.584 84.1776 156.882 85.8236C157.181 87.4676 157.964 88.9849 159.131 90.1801C159.133 90.1814 159.134 90.1828 159.135 90.1841L159.468 90.5168C159.468 90.5169 159.468 90.5167 159.468 90.5168C160.618 91.6651 161.53 93.0292 162.152 94.5302C162.774 96.0314 163.095 97.6405 163.095 99.2656C163.095 100.891 162.774 102.5 162.152 104.001C161.53 105.502 160.618 106.866 159.468 108.014C158.32 109.164 156.956 110.075 155.455 110.698C153.954 111.32 152.345 111.64 150.72 111.64C149.095 111.64 147.486 111.32 145.985 110.698C144.484 110.075 143.12 109.164 141.972 108.014C141.972 108.014 141.972 108.014 141.972 108.014L141.639 107.681C141.637 107.68 141.636 107.678 141.635 107.677C140.439 106.509 138.922 105.726 137.278 105.428C135.632 105.13 133.934 105.331 132.404 106.006L132.394 106.011C130.894 106.654 129.614 107.722 128.712 109.083C127.811 110.444 127.327 112.038 127.32 113.67C127.32 113.671 127.32 113.672 127.32 113.672L127.32 114.634C127.32 117.914 126.017 121.059 123.698 123.378C121.379 125.697 118.234 127 114.955 127C111.675 127 108.53 125.697 106.211 123.378C103.892 121.059 102.589 117.914 102.589 114.634V114.135C102.547 112.46 102.004 110.835 101.029 109.472C100.052 108.105 98.6858 107.065 97.1092 106.485C97.0985 106.481 97.0879 106.477 97.0774 106.472C97.0684 106.469 97.0594 106.465 97.0504 106.461C95.5201 105.786 93.8224 105.584 92.1765 105.883C90.5323 106.181 89.015 106.964 87.8198 108.132C87.8185 108.133 87.8172 108.134 87.8159 108.135L87.4832 108.468C86.3348 109.618 84.971 110.53 83.4698 111.152C81.9686 111.775 80.3595 112.095 78.7345 112.095C77.1094 112.095 75.5003 111.775 73.9991 111.152C72.4979 110.53 71.1341 109.618 69.9857 108.468C68.8363 107.32 67.9245 105.956 67.3023 104.455C66.68 102.954 66.3597 101.345 66.3597 99.7201C66.3597 98.095 66.68 96.4859 67.3023 94.9847C67.9246 93.4837 68.8365 92.1201 69.9861 90.9717C69.9862 90.9716 69.9859 90.9718 69.9861 90.9717L70.3192 90.6387C70.3204 90.6374 70.3217 90.6361 70.3229 90.6348C71.4906 89.4396 72.2739 87.9223 72.572 86.2781C72.8705 84.6321 72.669 82.9345 71.9936 81.4041L71.9892 81.3943C71.346 79.8936 70.2781 78.6137 68.9168 77.7122C67.5561 76.811 65.9616 76.3272 64.3295 76.3204C64.3289 76.3204 64.3283 76.3204 64.3277 76.3204L63.3658 76.3204C60.0862 76.3204 56.9409 75.0175 54.6219 72.6985C52.3028 70.3795 51 67.2342 51 63.9546C51 60.675 52.3028 57.5297 54.6219 55.2107C56.9409 52.8916 60.0862 51.5888 63.3658 51.5888H63.8651C65.5405 51.5473 67.165 51.004 68.5283 50.0289C69.8947 49.0516 70.9354 47.6859 71.5153 46.1093C71.5226 46.0894 71.5305 46.0698 71.539 46.0505C72.2145 44.5201 72.4159 42.8225 72.1175 41.1766C71.8194 39.5324 71.036 38.015 69.8684 36.8198L69.5319 36.4833C68.3822 35.3349 67.4701 33.9711 66.8478 32.4699C66.2255 30.9687 65.9052 29.3596 65.9052 27.7346C65.9052 26.1095 66.2255 24.5004 66.8478 22.9992C67.4701 21.498 68.3822 20.1342 69.5319 18.9858C70.6802 17.8364 72.0437 16.9246 73.5446 16.3024C75.0458 15.6801 76.6549 15.3598 78.2799 15.3598C79.905 15.3598 81.5141 15.6801 83.0153 16.3024C84.5163 16.9247 85.88 17.8366 87.0283 18.9862C87.0285 18.9863 87.0282 18.986 87.0283 18.9862L87.3653 19.3231C88.5605 20.4907 90.0778 21.274 91.7219 21.5721C93.3679 21.8706 95.0655 21.6691 96.5959 20.9937C96.7234 20.9374 96.8613 20.9083 97.0007 20.9083H97.2434C98.6651 20.2583 99.8778 19.2225 100.742 17.917C101.644 16.5562 102.127 14.9617 102.134 13.3296V12.3659C102.134 9.08629 103.437 5.94101 105.756 3.62197Z" fill="black"/>
</g>
<defs>
<clipPath id="clip0">
<rect width="127" height="127" fill="white" transform="translate(51 0.00012207)"/>
</clipPath>
</defs>
</svg>
